<svg width="132" height="32" viewBox="0 0 132 32" fill="none" xmlns="http://www.w3.org/2000/svg">
<path d="M49.5534 18.8482C49.5329 18.5039 49.7372 18.3207 50.0649 18.3207H52.3184C52.6252 18.3207 52.7893 18.4818 52.8508 18.8075C53.014 19.5403 53.6293 19.9066 54.8386 19.9066C56.17 19.9066 56.599 19.3978 56.599 18.8075C56.599 17.9746 55.5752 17.6082 54.3258 17.1825C52.298 16.4922 49.7372 15.6577 49.7372 12.5468C49.7372 9.70061 52.0723 8.27582 54.5096 8.27582C56.9074 8.27582 59.2011 9.55644 59.4473 12.5061C59.4678 12.8504 59.2626 13.0336 58.9345 13.0336H56.681C56.3743 13.0336 56.211 12.8725 56.1495 12.5468C55.9845 11.7937 55.453 11.4493 54.5096 11.4493C53.4867 11.4493 53.014 11.9565 53.014 12.5468C53.014 13.4017 53.8541 13.8071 55.0428 14.2345C57.0912 14.9452 59.878 15.678 59.878 18.8075C59.878 21.6537 57.5835 23.0768 54.8386 23.0768C52.1544 23.0768 49.7991 21.7962 49.5534 18.8482Z" fill="#2A3235"/>
<path d="M71.8661 9.17304L67.6051 16.5633V22.2846C67.6051 22.6103 67.4215 22.7934 67.0924 22.7934H64.8398C64.5116 22.7934 64.3278 22.6103 64.3278 22.2846V16.5633L60.0661 9.17304C59.8619 8.80491 60.0243 8.56235 60.4147 8.56235H63.0374C63.3246 8.56235 63.5083 8.68454 63.6314 8.9271L65.9661 13.366L68.3016 8.9271C68.4238 8.68454 68.6093 8.56235 68.8956 8.56235H71.5174C71.9071 8.56235 72.0712 8.80491 71.8661 9.17304Z" fill="#2A3235"/>
<path d="M81.4338 20.1695V22.2846C81.4338 22.6103 81.2492 22.7934 80.921 22.7934H74.8784H73.7504C73.4239 22.7934 73.2393 22.6103 73.2393 22.2846V9.06952C73.2393 8.74385 73.4239 8.56235 73.7504 8.56235H76.0047C76.332 8.56235 76.5166 8.74385 76.5166 9.06952V19.6606H80.921C81.2492 19.6606 81.4338 19.8438 81.4338 20.1695Z" fill="#2A3235"/>
<path d="M81.6372 15.678C81.6372 11.4884 84.9777 8.27582 89.0942 8.27582C93.2132 8.27582 96.552 11.4884 96.552 15.678C96.552 19.8659 93.2132 23.0768 89.0942 23.0768C84.9777 23.0768 81.6372 19.8659 81.6372 15.678ZM93.2739 15.678C93.2739 13.1354 91.4297 11.4493 89.0942 11.4493C86.7603 11.4493 84.9153 13.1354 84.9153 15.678C84.9153 18.2189 86.7603 19.9066 89.0942 19.9066C91.4297 19.9066 93.2739 18.2189 93.2739 15.678Z" fill="#2A3235"/>
<path d="M108.843 13.4424C108.843 16.1461 106.651 18.3206 103.824 18.3206H101.673V22.2846C101.673 22.6103 101.49 22.7934 101.162 22.7934H98.9089C98.5807 22.7934 98.3953 22.6103 98.3953 22.2846V9.06952C98.3953 8.74385 98.5807 8.56235 98.9089 8.56235H101.673H103.824C106.651 8.56235 108.843 10.7369 108.843 13.4424ZM105.566 13.4424C105.566 12.4043 104.829 11.6104 103.824 11.6104H101.673V15.2708H103.824C104.829 15.2708 105.566 14.4787 105.566 13.4424Z" fill="#2A3235"/>
<path d="M118.427 20.1695V22.2846C118.427 22.6103 118.242 22.7934 117.915 22.7934H110.847H110.335C110.007 22.7934 109.823 22.6103 109.823 22.2846V9.06952C109.823 8.74385 110.007 8.56235 110.335 8.56235H113.1H117.812C118.14 8.56235 118.325 8.74385 118.325 9.06952V11.1847C118.325 11.5104 118.14 11.6936 117.812 11.6936H113.1V14.0716H117.299C117.628 14.0716 117.812 14.2548 117.812 14.5788V16.6126C117.812 16.9365 117.628 17.1197 117.299 17.1197H113.1V19.6606H117.915C118.242 19.6606 118.427 19.8438 118.427 20.1695Z" fill="#2A3235"/>
<path d="M131.866 22.1625C132.131 22.4864 131.989 22.7934 131.559 22.7934H128.936C128.67 22.7934 128.465 22.7121 128.3 22.4864L124.812 18.1153H123.548V22.2846C123.548 22.6103 123.364 22.7934 123.037 22.7934H120.783C120.454 22.7934 120.272 22.6103 120.272 22.2846V9.06952C120.272 8.74385 120.454 8.56235 120.783 8.56235H123.548H125.802C128.528 8.56235 130.719 10.7369 130.719 13.4424C130.719 15.147 129.698 16.7025 128.183 17.5183L131.866 22.1608V22.1625ZM123.548 15.2708H125.802C126.704 15.2708 127.44 14.4787 127.44 13.4424C127.44 12.406 126.704 11.6104 125.802 11.6104H123.548V15.2708Z" fill="#2A3235"/>
<path d="M42.9027 14.533L28.8715 0.607237C28.4754 0.215417 27.952 0 27.3939 0C26.8346 0 26.312 0.215417 25.9155 0.607237L21.758 4.73404L18.9439 7.52943L11.8864 14.5313C11.0699 15.337 11.0673 16.655 11.8842 17.4692L18.9439 24.4745L21.758 21.6826L16.032 16.0002L21.758 10.3163L24.5704 7.52768L27.3939 4.72561L38.7538 16.0002L27.3939 27.2783L24.5704 24.4745L21.758 27.2681L25.91 31.3898C26.3005 31.7783 26.8398 32.0022 27.3939 32.0022C27.9468 32.0022 28.4878 31.7783 28.8715 31.3915L42.907 17.4658C43.7192 16.655 43.7167 15.337 42.9027 14.533Z" fill="#00B96B"/>
<path d="M31.6314 14.533L24.5704 7.52768L21.758 10.3163L27.4828 16.0002L21.758 21.6826L18.9439 24.4745L16.1217 27.2783L4.76053 16.0002L16.1217 4.72561L18.9439 7.52943L21.758 4.73404L17.5997 0.607237C17.2048 0.215417 16.6793 0 16.1217 0C15.5636 0 15.0398 0.215417 14.6433 0.607237L0.614153 14.5313C-0.20319 15.337 -0.204957 16.655 0.610302 17.4692L14.6381 31.3898C15.0282 31.7783 15.5675 32.0022 16.1217 32.0022C16.6742 32.0022 17.2143 31.7783 17.5997 31.3915L21.758 27.2681L24.5704 24.4745L31.633 17.4658C32.4466 16.655 32.4441 15.337 31.6314 14.533Z" fill="#2A3235"/>
</svg>
